<svg width="71" height="29" viewBox="0 0 71 29" fill="none" xmlns="http://www.w3.org/2000/svg">
<path d="M2.336 9.936L2.264 7.812V7.596C2.264 6.9 2.108 6.168 1.796 5.4L1.652 5.04C1.388 4.704 1.256 4.308 1.256 3.852C1.256 3.396 1.52 2.94 2.048 2.484C2.576 2.004 3.224 1.632 3.992 1.368C5.6 0.816 6.968 0.539999 8.096 0.539999C9.224 0.539999 9.896 1.02 10.112 1.98C10.4 2.94 10.712 4.248 11.048 5.904C11.408 7.536 11.66 8.628 11.804 9.18C12.188 10.788 12.608 12.036 13.064 12.924C13.136 12.996 13.22 13.032 13.316 13.032C13.556 13.032 13.7 12.756 13.748 12.204C13.748 10.044 13.7 8.376 13.604 7.2C13.532 6 13.496 5.088 13.496 4.464C13.496 3.816 13.532 3.384 13.604 3.168C13.868 2.376 14.408 1.716 15.224 1.188C16.064 0.659999 16.856 0.395999 17.6 0.395999C18.368 0.395999 18.752 0.695999 18.752 1.296C18.752 1.44 18.584 2.352 18.248 4.032C17.432 8.28 17.024 13.44 17.024 19.512C17.024 21.528 17.096 23.652 17.24 25.884V26.028C17.24 26.796 16.832 27.288 16.016 27.504C15.392 27.672 14.72 27.756 14 27.756C13.304 27.756 12.488 27.588 11.552 27.252C10.64 26.94 10.124 26.412 10.004 25.668C9.332 21.636 8.456 17.592 7.376 13.536L6.836 11.484C6.692 11.1 6.524 10.908 6.332 10.908C5.924 10.908 5.72 13.428 5.72 18.468C5.72 20.196 5.756 21.72 5.828 23.04C5.9 24.36 5.936 25.14 5.936 25.38C5.936 26.028 5.708 26.568 5.252 27C4.82 27.456 4.28 27.768 3.632 27.936C2.552 28.248 1.7 28.404 1.076 28.404C0.452 28.404 0.14 28.116 0.14 27.54C0.14 27.348 0.332 26.544 0.716 25.128C1.1 23.688 1.328 22.776 1.4 22.392C2.024 19.272 2.336 15.492 2.336 11.052V9.936ZM29.0497 9.036C31.1377 9.036 32.7217 9.948 33.8017 11.772C34.9057 13.596 35.4577 15.828 35.4577 18.468C35.4577 21.948 34.4617 24.588 32.4697 26.388C31.3657 27.372 30.1417 27.864 28.7977 27.864C27.4537 27.864 26.3377 27.588 25.4497 27.036C24.5857 26.484 23.9257 25.752 23.4697 24.84C22.5337 23.064 22.0657 21.168 22.0657 19.152C22.0657 16.8 22.6057 14.592 23.6857 12.528C24.2137 11.496 24.9457 10.656 25.8817 10.008C26.8177 9.36 27.8737 9.036 29.0497 9.036ZM31.1377 16.704C31.1377 15.984 30.9937 15.336 30.7057 14.76C30.4177 14.184 29.9377 13.896 29.2657 13.896C28.6177 13.896 27.9817 14.364 27.3577 15.3C26.7577 16.212 26.4577 17.328 26.4577 18.648C26.4577 20.496 27.0697 21.42 28.2937 21.42C28.9657 21.42 29.6017 21 30.2017 20.16C30.8257 19.32 31.1377 18.168 31.1377 16.704ZM45.2345 2.7L44.8385 11.952C44.8385 12.672 44.8505 13.176 44.8745 13.464C44.8985 13.728 44.9585 13.86 45.0545 13.86C45.1745 13.86 45.2825 13.812 45.3785 13.716C45.4745 13.62 45.9545 13.032 46.8185 11.952C47.7065 10.848 48.3905 10.08 48.8705 9.648C49.3745 9.216 49.9145 9 50.4905 9C51.0665 9 51.6305 9.252 52.1825 9.756C52.7585 10.236 53.0465 10.764 53.0465 11.34C53.0465 11.892 52.7105 12.18 52.0385 12.204C51.1265 12.204 50.4305 12.636 49.9505 13.5C49.8545 13.668 49.8065 13.932 49.8065 14.292C49.8065 14.652 49.9385 15.456 50.2025 16.704C50.4665 17.928 50.8985 19.248 51.4985 20.664C52.0985 22.08 52.7465 22.884 53.4425 23.076C54.0665 23.292 54.3785 23.628 54.3785 24.084C54.3785 24.924 53.8625 25.716 52.8305 26.46C51.8225 27.18 50.9705 27.54 50.2745 27.54C49.6025 27.54 49.0985 27.288 48.7625 26.784C48.4265 26.256 48.0545 25.2 47.6465 23.616C47.2625 22.032 46.9625 20.58 46.7465 19.26L46.4225 17.28C46.3505 16.92 46.2185 16.74 46.0265 16.74C45.7145 16.74 45.4505 16.932 45.2345 17.316C45.0185 17.7 44.8865 18.108 44.8385 18.54C44.8145 18.972 44.8025 19.68 44.8025 20.664C44.8025 21.624 44.8385 22.596 44.9105 23.58C45.0065 24.54 45.0545 25.116 45.0545 25.308C45.0545 26.1 44.7785 26.688 44.2265 27.072C43.4105 27.648 42.2825 27.936 40.8425 27.936C39.8345 27.936 39.3305 27.528 39.3305 26.712L39.4385 26.1C40.0865 22.716 40.4105 17.772 40.4105 11.268C40.4345 10.404 40.4465 9.456 40.4465 8.424C40.4465 7.368 40.4225 6.66 40.3745 6.3C40.3265 5.916 40.2065 5.58 40.0145 5.292C39.8225 4.98 39.5585 4.716 39.2225 4.5C38.8865 4.26 38.7185 3.96 38.7185 3.6C38.7185 2.832 39.3545 2.088 40.6265 1.368C41.8985 0.623999 42.9665 0.251999 43.8305 0.251999C44.7185 0.251999 45.1745 0.683999 45.1985 1.548C45.2225 1.836 45.2345 2.22 45.2345 2.7ZM63.9711 9.036C66.0591 9.036 67.6431 9.948 68.7231 11.772C69.8271 13.596 70.3791 15.828 70.3791 18.468C70.3791 21.948 69.3831 24.588 67.3911 26.388C66.2871 27.372 65.0631 27.864 63.7191 27.864C62.3751 27.864 61.2591 27.588 60.3711 27.036C59.5071 26.484 58.8471 25.752 58.3911 24.84C57.4551 23.064 56.9871 21.168 56.9871 19.152C56.9871 16.8 57.5271 14.592 58.6071 12.528C59.1351 11.496 59.8671 10.656 60.8031 10.008C61.7391 9.36 62.7951 9.036 63.9711 9.036ZM66.0591 16.704C66.0591 15.984 65.9151 15.336 65.6271 14.76C65.3391 14.184 64.8591 13.896 64.1871 13.896C63.5391 13.896 62.9031 14.364 62.2791 15.3C61.6791 16.212 61.3791 17.328 61.3791 18.648C61.3791 20.496 61.9911 21.42 63.2151 21.42C63.8871 21.42 64.5231 21 65.1231 20.16C65.7471 19.32 66.0591 18.168 66.0591 16.704Z" fill="#251605"/>
</svg>
